<?xml version="1.0" standalone="no"?>
<!DOCTYPE svg PUBLIC "-//W3C//DTD SVG 20010904//EN"
 "http://www.w3.org/TR/2001/REC-SVG-20010904/DTD/svg10.dtd">
<svg version="1.0" xmlns="http://www.w3.org/2000/svg"
 width="960.000000pt" height="960.000000pt" viewBox="0 0 960.000000 960.000000"
 preserveAspectRatio="xMidYMid meet">
<metadata>
Created by potrace 1.15, written by Peter Selinger 2001-2017
</metadata>
<g transform="translate(0.000000,960.000000) scale(0.100000,-0.100000)"
fill="#000000" stroke="none">
<path d="M157 6858 c11 -13 175 -210 364 -438 190 -228 520 -626 735 -885 214
-258 498 -600 629 -759 132 -160 277 -334 323 -388 l83 -98 970 0 969 0 0
-1079 0 -1080 -52 -15 c-29 -8 -190 -51 -358 -96 -168 -45 -462 -123 -655
-175 -192 -52 -449 -121 -570 -153 -121 -33 -492 -132 -825 -222 -333 -89
-686 -184 -784 -209 l-179 -48 -134 -284 c-229 -484 -355 -760 -351 -764 4 -4
209 47 478 119 105 27 302 78 760 196 168 43 395 101 505 130 295 77 722 188
1040 269 258 67 441 114 620 161 160 42 516 133 744 191 228 57 247 61 295 50
49 -10 426 -106 891 -226 121 -32 375 -97 565 -146 731 -187 1048 -268 1375
-354 55 -15 231 -60 390 -100 160 -41 387 -99 505 -129 118 -31 347 -89 508
-130 161 -42 297 -78 302 -81 6 -3 10 -3 10 1 0 5 -47 107 -104 229 -58 121
-168 355 -245 520 -78 164 -145 303 -150 308 -4 4 -68 24 -142 43 -74 19 -285
76 -469 126 -184 49 -454 121 -600 158 -146 38 -321 84 -390 104 -69 19 -287
78 -485 130 -478 126 -1282 341 -1364 365 -36 11 -92 27 -123 35 l-58 17 0
1069 0 1070 988 0 987 1 317 382 c531 641 809 976 1113 1342 160 193 356 429
435 525 80 96 175 211 212 255 l67 80 -755 3 c-415 1 -1093 1 -1508 0 l-754
-3 81 -171 c45 -94 147 -309 226 -477 l145 -307 254 0 c152 0 252 -4 250 -9
-1 -5 -46 -62 -98 -127 -136 -167 -288 -354 -376 -461 l-75 -93 -1969 0 -1968
0 -103 128 c-57 70 -181 222 -276 339 -95 116 -173 214 -173 217 0 3 114 6
254 6 l253 0 71 153 c39 83 140 299 225 480 l155 327 -1511 0 -1510 0 20 -22z"/>
</g>
</svg>
