<svg id="svg" version="1.1" xmlns="http://www.w3.org/2000/svg" xmlns:xlink="http://www.w3.org/1999/xlink" width="400" height="400" viewBox="0, 0, 400,400"><g id="svgg"><path id="path0" d="M195.191 11.595 C 192.758 16.731,187.246 28.473,185.752 31.698 C 185.128 33.047,182.384 38.880,179.654 44.661 C 176.924 50.441,174.125 56.385,173.433 57.868 C 170.996 63.094,169.680 65.892,167.639 70.189 C 166.505 72.575,163.491 79.028,160.941 84.528 C 155.772 95.676,150.609 106.657,147.458 113.208 C 145.710 116.842,139.358 130.273,131.129 147.736 C 130.151 149.811,128.709 152.953,127.924 154.717 C 127.139 156.481,125.459 160.101,124.192 162.762 C 122.924 165.423,121.887 167.673,121.887 167.762 C 121.887 167.851,131.707 167.925,143.710 167.925 L 165.534 167.925 168.616 161.550 C 170.311 158.043,171.698 155.097,171.698 155.001 C 171.698 154.906,173.670 150.770,176.081 145.810 C 178.491 140.850,181.356 134.925,182.448 132.642 C 183.540 130.358,186.131 125.009,188.206 120.755 C 190.281 116.500,193.194 110.491,194.679 107.400 C 196.164 104.310,197.442 101.848,197.518 101.929 C 197.594 102.009,199.689 106.321,202.174 111.509 C 204.658 116.698,208.224 124.085,210.098 127.925 C 211.973 131.764,214.397 136.774,215.485 139.057 C 216.574 141.340,219.964 148.387,223.019 154.717 C 226.073 161.047,228.693 166.608,228.840 167.075 L 229.107 167.925 251.161 167.925 L 273.215 167.925 271.528 164.564 C 270.599 162.716,268.576 158.429,267.031 155.036 C 265.485 151.644,263.339 147.000,262.261 144.717 C 261.182 142.434,259.662 139.208,258.882 137.547 C 255.894 131.191,247.508 113.513,244.760 107.780 C 243.180 104.483,241.887 101.745,241.887 101.694 C 241.887 101.644,240.680 99.077,239.206 95.990 C 237.731 92.903,235.796 88.764,234.905 86.792 C 234.014 84.821,232.607 81.764,231.779 80.000 C 230.951 78.236,229.721 75.604,229.045 74.151 C 227.929 71.750,226.979 69.724,223.209 61.698 C 222.527 60.245,221.167 57.358,220.187 55.283 C 219.207 53.208,217.171 48.877,215.661 45.660 C 214.152 42.443,212.071 38.028,211.037 35.849 C 210.004 33.670,208.613 30.698,207.946 29.245 C 207.279 27.792,205.807 24.651,204.674 22.264 C 203.541 19.877,201.550 15.643,200.250 12.855 C 197.341 6.616,197.527 6.663,195.191 11.595 M86.245 243.118 C 84.180 247.526,81.570 253.085,80.446 255.472 C 77.423 261.892,72.388 272.567,70.658 276.226 C 69.824 277.991,68.548 280.708,67.822 282.264 C 65.452 287.345,59.973 298.996,58.683 301.698 C 57.989 303.151,56.671 305.953,55.754 307.925 C 54.837 309.896,53.119 313.547,51.937 316.038 C 46.516 327.458,45.039 330.763,45.309 330.870 C 45.469 330.934,49.561 329.966,54.403 328.720 C 59.246 327.474,65.585 325.843,68.491 325.096 C 71.396 324.349,78.104 322.618,83.396 321.250 C 88.689 319.881,97.519 317.611,103.019 316.205 C 108.519 314.800,116.075 312.845,119.811 311.862 C 123.547 310.879,127.877 309.786,129.434 309.434 C 130.991 309.081,134.302 308.241,136.792 307.567 C 139.283 306.893,141.575 306.275,141.887 306.195 C 148.083 304.594,150.348 304.007,154.151 303.013 C 156.642 302.363,159.741 301.556,161.038 301.220 L 163.396 300.610 163.396 280.494 C 163.396 266.410,163.275 260.377,162.991 260.377 C 162.538 260.377,154.934 262.339,148.302 264.167 C 145.915 264.824,140.906 266.175,137.170 267.167 C 133.434 268.160,128.425 269.516,126.038 270.180 C 117.950 272.431,115.094 273.108,115.094 272.773 C 115.094 272.590,117.811 266.911,121.132 260.154 C 124.453 253.396,127.170 247.807,127.170 247.733 C 127.170 247.658,128.371 245.166,129.839 242.195 C 131.306 239.224,132.661 236.410,132.848 235.943 L 133.189 235.094 111.594 235.100 L 90.000 235.105 86.245 243.118 M261.887 235.283 C 261.887 235.386,264.285 240.438,267.216 246.509 C 270.148 252.580,273.186 258.906,273.969 260.566 C 274.751 262.226,276.415 265.706,277.667 268.299 C 278.918 270.892,279.910 273.046,279.870 273.086 C 279.810 273.146,270.450 270.681,262.264 268.451 C 261.123 268.140,257.642 267.201,254.528 266.365 C 251.415 265.529,247.679 264.520,246.226 264.123 C 244.774 263.725,240.953 262.714,237.736 261.875 C 234.519 261.036,231.632 260.273,231.321 260.179 C 230.822 260.029,230.767 262.413,230.855 280.344 L 230.956 300.680 237.271 302.232 C 240.743 303.086,245.792 304.361,248.491 305.067 C 251.189 305.772,258.072 307.544,263.788 309.004 C 269.503 310.464,275.871 312.106,277.939 312.652 C 280.006 313.198,286.028 314.746,291.321 316.092 C 296.613 317.438,303.151 319.113,305.849 319.813 C 308.547 320.514,315.085 322.197,320.377 323.554 C 340.452 328.699,349.202 330.989,349.502 331.174 C 350.127 331.560,349.764 330.575,347.597 325.998 C 346.378 323.425,344.060 318.519,342.444 315.094 C 340.828 311.670,338.344 306.425,336.923 303.439 C 335.502 300.453,334.340 297.958,334.340 297.895 C 334.340 297.831,332.705 294.331,330.708 290.116 C 325.736 279.627,324.073 276.092,321.423 270.377 C 320.172 267.679,317.726 262.520,315.989 258.912 C 314.252 255.303,312.830 252.284,312.830 252.202 C 312.830 252.120,311.923 250.148,310.814 247.819 C 309.705 245.490,307.895 241.675,306.792 239.340 L 304.788 235.094 283.337 235.094 C 271.539 235.094,261.887 235.179,261.887 235.283 " stroke="none" fill="#54b3eb" fill-rule="evenodd"></path><path id="path1" d="M6.038 113.427 C 6.038 113.519,7.135 114.909,8.476 116.515 C 11.152 119.718,17.478 127.336,27.354 139.248 C 30.880 143.501,34.048 147.321,34.395 147.736 C 34.742 148.151,35.947 149.594,37.074 150.943 C 38.201 152.292,44.193 159.509,50.390 166.981 C 56.587 174.453,64.053 183.453,66.981 186.981 C 69.910 190.509,75.682 197.472,79.809 202.453 C 83.936 207.434,89.106 213.673,91.298 216.318 L 95.283 221.126 135.755 221.129 L 176.226 221.132 176.226 266.212 L 176.226 311.292 174.623 311.710 C 173.741 311.940,169.028 313.209,164.151 314.529 C 159.274 315.850,152.991 317.534,150.189 318.271 C 147.387 319.009,137.877 321.554,129.057 323.926 C 120.236 326.298,109.453 329.188,105.094 330.349 C 100.736 331.509,94.113 333.299,90.377 334.326 C 86.642 335.352,80.906 336.883,77.633 337.728 C 74.359 338.572,68.670 340.095,64.991 341.110 C 61.312 342.126,55.925 343.574,53.019 344.326 C 46.693 345.966,33.819 349.489,33.662 349.624 C 33.600 349.677,31.712 353.604,29.465 358.351 C 27.219 363.097,24.425 368.990,23.256 371.445 C 22.088 373.901,21.132 375.964,21.132 376.029 C 21.132 376.095,20.217 378.077,19.099 380.433 C 17.068 384.710,13.208 393.246,13.208 393.457 C 13.208 393.518,13.590 393.408,14.057 393.211 C 15.023 392.804,16.559 392.404,49.811 383.901 C 54.274 382.761,60.472 381.172,63.585 380.371 C 66.698 379.571,72.981 377.960,77.547 376.792 C 82.113 375.624,88.057 374.068,90.755 373.334 C 93.453 372.600,99.906 370.915,105.094 369.589 C 110.283 368.263,115.802 366.832,117.358 366.408 C 118.915 365.984,124.774 364.463,130.377 363.028 C 135.981 361.593,142.943 359.802,145.849 359.048 C 148.755 358.293,154.358 356.853,158.302 355.846 C 166.214 353.826,177.340 350.968,185.472 348.865 C 188.377 348.114,191.009 347.439,191.321 347.365 C 191.632 347.290,192.906 346.957,194.151 346.623 C 196.362 346.030,198.680 346.107,200.036 346.818 C 200.367 346.992,201.046 347.216,201.545 347.316 C 202.492 347.507,217.966 351.446,223.208 352.831 C 224.868 353.269,231.491 354.976,237.925 356.623 C 254.917 360.973,269.772 364.783,274.528 366.011 C 276.811 366.601,283.009 368.197,288.302 369.558 C 293.594 370.919,299.877 372.538,302.264 373.157 C 304.651 373.776,309.976 375.147,314.098 376.203 C 318.219 377.260,324.502 378.877,328.060 379.797 C 331.617 380.717,338.179 382.401,342.642 383.540 C 351.118 385.704,356.543 387.102,371.321 390.928 C 376.198 392.191,380.443 393.290,380.755 393.369 C 381.066 393.448,382.708 393.869,384.402 394.304 C 386.097 394.739,387.574 395.094,387.683 395.094 C 387.880 395.094,386.706 392.414,383.963 386.604 C 382.691 383.910,380.770 379.814,374.495 366.421 C 369.014 354.722,367.175 351.129,366.538 350.878 C 366.159 350.729,360.075 349.065,353.019 347.181 C 345.962 345.297,335.179 342.398,329.057 340.740 C 322.934 339.082,317.732 337.728,317.498 337.731 C 317.263 337.734,312.763 336.561,307.498 335.125 C 302.232 333.688,290.453 330.533,281.321 328.113 C 272.189 325.694,259.792 322.389,253.774 320.771 C 247.755 319.153,240.453 317.201,237.547 316.435 C 234.642 315.669,229.632 314.304,226.415 313.402 C 223.198 312.501,219.505 311.471,218.208 311.115 L 215.849 310.467 215.849 265.988 L 215.849 221.509 218.774 221.516 C 220.382 221.519,226.028 221.447,231.321 221.355 C 236.613 221.262,253.805 221.175,269.525 221.160 L 298.106 221.132 308.368 208.774 C 314.012 201.976,322.648 191.575,327.560 185.660 C 332.471 179.745,339.588 171.170,343.374 166.604 C 347.161 162.038,356.676 150.575,364.518 141.132 C 385.290 116.121,387.170 113.830,387.170 113.531 C 387.170 113.383,358.981 113.247,324.528 113.231 C 290.075 113.215,261.887 113.283,261.887 113.382 C 261.887 113.658,263.417 116.987,266.228 122.830 C 267.627 125.736,269.151 128.972,269.616 130.023 C 270.081 131.073,271.507 134.129,272.786 136.815 C 274.065 139.501,276.339 144.285,277.839 147.447 L 280.566 153.195 287.358 153.365 C 291.094 153.458,295.902 153.546,298.043 153.560 L 301.935 153.585 298.798 157.445 C 297.072 159.568,293.283 164.225,290.377 167.792 C 287.472 171.360,284.304 175.269,283.338 176.479 C 282.372 177.689,281.258 179.051,280.862 179.504 C 280.466 179.958,279.815 180.765,279.415 181.297 L 278.689 182.264 196.605 182.264 L 114.521 182.264 114.006 181.438 C 113.468 180.578,108.075 173.885,99.044 162.873 C 96.132 159.321,93.267 155.778,92.679 155.000 L 91.609 153.585 96.653 153.536 C 99.428 153.509,104.208 153.382,107.276 153.253 L 112.854 153.019 117.402 143.396 C 119.903 138.104,122.684 132.160,123.581 130.189 C 125.735 125.457,129.033 118.505,130.519 115.563 L 131.712 113.201 68.875 113.230 C 34.314 113.246,6.038 113.334,6.038 113.427 " stroke="none" fill="#fbfbfb" fill-rule="evenodd"></path><path id="path2" d="" stroke="none" fill="#b0b0b1" fill-rule="evenodd"></path><path id="path3" d="" stroke="none" fill="#c3c4c4" fill-rule="evenodd"></path><path id="path4" d="M29.344 113.474 C 29.813 113.565,30.493 113.561,30.853 113.467 C 31.214 113.372,30.830 113.299,30.000 113.303 C 29.170 113.307,28.875 113.384,29.344 113.474 M362.552 113.474 C 363.021 113.565,363.700 113.561,364.061 113.467 C 364.422 113.372,364.038 113.299,363.208 113.303 C 362.377 113.307,362.082 113.384,362.552 113.474 M109.346 153.481 C 110.025 153.565,111.043 153.563,111.611 153.477 C 112.178 153.391,111.623 153.322,110.377 153.324 C 109.132 153.327,108.668 153.397,109.346 153.481 M282.177 153.481 C 282.855 153.565,283.874 153.563,284.441 153.477 C 285.008 153.391,284.453 153.322,283.208 153.324 C 281.962 153.327,281.498 153.397,282.177 153.481 M115.566 221.415 C 126.722 221.471,144.976 221.471,156.132 221.415 C 167.288 221.359,158.160 221.314,135.849 221.314 C 113.538 221.314,104.410 221.359,115.566 221.415 M251.387 221.415 C 259.829 221.472,273.753 221.472,282.330 221.415 C 290.907 221.358,284.000 221.312,266.981 221.312 C 249.962 221.312,242.945 221.358,251.387 221.415 " stroke="none" fill="#dcdcdc" fill-rule="evenodd"></path></g></svg>